<svg xmlns="http://www.w3.org/2000/svg" width="132.622" height="77.997" viewBox="0 0 132.622 77.997">
  <g id="Logo_Claro_Negativo" data-name="Logo Claro Negativo" transform="translate(-57.641 -26.473)">
    <g id="Grupo_27546" data-name="Grupo 27546" transform="translate(57.641 26.473)">
      <g id="Grupo_27545" data-name="Grupo 27545" transform="translate(0 0)">
        <path id="Trazado_38877" data-name="Trazado 38877" d="M273.256,93.816a6.79,6.79,0,0,1-9.733,0,6.933,6.933,0,0,1-2.059-4.906,6.757,6.757,0,0,1,2.059-4.965,6.182,6.182,0,0,1,4.837-2,6.426,6.426,0,0,1,4.956,2,7.011,7.011,0,0,1-.06,9.871m4.417-14.293a12.754,12.754,0,0,0-9.313-3.878,12.386,12.386,0,0,0-9.192,3.878,12.8,12.8,0,0,0-3.87,9.387,12.564,12.564,0,0,0,3.87,9.325,12.417,12.417,0,0,0,9.192,3.936A13.224,13.224,0,0,0,281.483,88.91a13,13,0,0,0-3.811-9.387" transform="translate(-169.365 -54.267)" fill="#e1251b"/>
        <path id="Trazado_38878" data-name="Trazado 38878" d="M73.844,60.745a14.863,14.863,0,0,0-11.43,4.782A15.691,15.691,0,0,0,57.641,77.1a15.92,15.92,0,0,0,4.773,11.627,15.467,15.467,0,0,0,11.43,4.725A15.754,15.754,0,0,0,83.7,90.113a16.425,16.425,0,0,0,5.683-8.657H82.8a11.355,11.355,0,0,1-3.568,4.178,10.1,10.1,0,0,1-5.384,1.576,9.671,9.671,0,0,1-7.076-2.972,10.242,10.242,0,0,1,0-14.287,9.82,9.82,0,0,1,12.459-1.332A10.87,10.87,0,0,1,82.8,72.8h6.59A16.182,16.182,0,0,0,83.7,64.139a15.112,15.112,0,0,0-9.859-3.394" transform="translate(-57.641 -45.844)" fill="#e1251b"/>
        <path id="Trazado_38879" data-name="Trazado 38879" d="M174.835,89.734l1.206-.66v2.541c0,2.175-.6,3.691-1.751,4.538a6.632,6.632,0,0,1-3.933,1.273,3.457,3.457,0,0,1-2.236-.724,3.61,3.61,0,0,1,.6-5.334,8.343,8.343,0,0,1,2.963-.847Zm-2.66-14.228c-4.234-.064-7.2,1.09-8.893,3.331a10.005,10.005,0,0,0-1.812,5.514h6.292a4.048,4.048,0,0,1,.906-2.3A3.742,3.742,0,0,1,172,80.835a5.527,5.527,0,0,1,3.08.6,2.275,2.275,0,0,1,1.089,2.122,2.09,2.09,0,0,1-1.451,1.939l-4.841.781a15.227,15.227,0,0,0-5.441,1.641c-2.356,1.392-3.5,3.629-3.443,6.845a6.757,6.757,0,0,0,2.113,5.387,8.077,8.077,0,0,0,5.145,1.756c3.444-.063,6.163-.91,8.1-2.607v2.607h6.295V83.378c0-3.03-1.1-5.146-3.149-6.237a14.609,14.609,0,0,0-7.315-1.635" transform="translate(-116.055 -54.185)" fill="#e1251b"/>
        <rect id="Rectángulo_13496" data-name="Rectángulo 13496" width="6.29" height="32.824" transform="translate(34.95 14.901)" fill="#e1251b"/>
        <path id="Trazado_38880" data-name="Trazado 38880" d="M230.978,76.574a10.086,10.086,0,0,0-4.474,3.571V76.935l-5.986-.056v25.193h6.229V90.02a8.973,8.973,0,0,1,.79-4.422,5.9,5.9,0,0,1,2.176-2.421,6.083,6.083,0,0,1,3.448-1.093l1.932.126-.056-6.425-1.633.123Z" transform="translate(-149.706 -54.346)" fill="#e1251b"/>
        <path id="Trazado_38881" data-name="Trazado 38881" d="M312.842,52.927l15.183-15.2-3.993-3.993-15.18,15.2Z" transform="translate(-199.636 -30.576)" fill="#e1251b"/>
        <rect id="Rectángulo_13497" data-name="Rectángulo 13497" width="5.622" height="16.294" transform="translate(96.941)" fill="#e1251b"/>
        <rect id="Rectángulo_13498" data-name="Rectángulo 13498" width="16.633" height="5.631" transform="translate(115.989 28.65)" fill="#e1251b"/>
      </g>
    </g>
    <g id="Grupo_27547" data-name="Grupo 27547" transform="translate(145.539 81.227)">
      <path id="Trazado_38882" data-name="Trazado 38882" d="M267.108,175.657a5.849,5.849,0,0,1-2.425-.458,4.879,4.879,0,0,1-1.668-1.2,4.635,4.635,0,0,1-.958-1.673,6.2,6.2,0,0,1-.3-1.919v-9.086h-1.937v-3.486h1.937v-5.423h4.614v5.423h3.24v3.486h-3.24v8.8q0,1.656,1.584,1.655h1.656v3.874Z" transform="translate(-259.818 -152.415)" fill="#fff"/>
      <path id="Trazado_38883" data-name="Trazado 38883" d="M296.577,182.021h-3.592l-6.761-18.347h4.824l3.733,11.339,3.7-11.339H303.3Z" transform="translate(-274.744 -158.779)" fill="#fff"/>
      <path id="Trazado_38884" data-name="Trazado 38884" d="M336.609,175.468V181.1h-4.3v-5.634h-5.67v-4.3h5.67v-5.634h4.3v5.634h5.634v4.3Z" transform="translate(-297.59 -159.832)" fill="#fff"/>
    </g>
  </g>
</svg>
