<svg id="Estados_ícono_notificación." data-name="Estados ícono notificación." xmlns="http://www.w3.org/2000/svg" width="50" height="50" viewBox="0 0 50 50">
  <g id="Grupo_38981" data-name="Grupo 38981">
    <path id="Trazado_28115" data-name="Trazado 28115" d="M886.994,341.068a25,25,0,1,1,25-25,25,25,0,0,1-25,25m0-45.455a20.455,20.455,0,1,0,20.455,20.455,20.453,20.453,0,0,0-20.455-20.455" transform="translate(-861.994 -291.068)" fill="#0093a3"/>
    <path id="Trazado_28116" data-name="Trazado 28116" d="M874.267,314.7a2.274,2.274,0,0,1-2.273-2.273v-9.091a2.273,2.273,0,1,1,4.545,0v9.091a2.274,2.274,0,0,1-2.273,2.273" transform="translate(-849.267 -278.341)" fill="#0093a3"/>
    <path id="Trazado_28117" data-name="Trazado 28117" d="M874.283,301.613a2.273,2.273,0,1,1-.023-4.545h.023a2.273,2.273,0,1,1,0,4.545" transform="translate(-849.26 -283.432)" fill="#0093a3"/>
  </g>
</svg>
