<svg id="icono-eyes-off-ppal" xmlns="http://www.w3.org/2000/svg" width="24" height="23.988" viewBox="0 0 24 23.988">
  <path id="Trazado_28058" data-name="Trazado 28058" d="M702.045,200.136a8.109,8.109,0,0,1,1.849-.214h.022c5.375,0,8.918,5.389,9.857,7a17.49,17.49,0,0,1-1.783,2.546,1,1,0,0,0,1.532,1.288,19.6,19.6,0,0,0,2.276-3.362,1,1,0,0,0,.013-.919c-.175-.353-4.364-8.553-11.892-8.553a9.678,9.678,0,0,0-2.331.266,1,1,0,0,0,.457,1.948" transform="translate(-691.916 -194.932)" fill="#ccc"/>
  <path id="Trazado_28059" data-name="Trazado 28059" d="M702.531,204.121l0,0,0,0-3.747-3.748-.005-.009c-.01-.013-.025-.018-.035-.03l-5.115-5.115a1,1,0,0,0-1.414,1.414l4.294,4.294a19.331,19.331,0,0,0-4.468,5.527,1,1,0,0,0-.013.92c.174.352,4.363,8.552,11.911,8.552v0a10.994,10.994,0,0,0,5.812-1.759l4.464,4.464a1,1,0,1,0,1.414-1.414Zm-.59,2.238,2.538,2.538a1.989,1.989,0,0,1-2.538-2.538m1.975,7.563c-5.374,0-8.917-5.389-9.856-7a17.3,17.3,0,0,1,3.858-4.586l2.536,2.536a4,4,0,0,0,3.386,6.123h0a3.978,3.978,0,0,0,2.116-.622l2.33,2.33a8.981,8.981,0,0,1-4.37,1.218" transform="translate(-691.916 -194.932)" fill="#ccc"/>
</svg>
